<?xml version="1.0" standalone="no"?>
<!DOCTYPE svg PUBLIC "-//W3C//DTD SVG 20010904//EN"
 "http://www.w3.org/TR/2001/REC-SVG-20010904/DTD/svg10.dtd">
<svg version="1.0" xmlns="http://www.w3.org/2000/svg"
 width="228.000000pt" height="221.000000pt" viewBox="0 0 228.000000 221.000000"
 preserveAspectRatio="xMidYMid meet">

<g transform="translate(0.000000,221.000000) scale(0.100000,-0.100000)"
fill="#ED1C24" stroke="none">
<path d="M370 1690 c0 -448 2 -526 16 -558 15 -37 61 -92 76 -92 4 0 7 262 6
583 l-3 582 -47 3 -48 3 0 -521z"/>
<path d="M530 1606 c0 -350 4 -615 9 -629 11 -29 69 -97 82 -97 5 0 8 273 7
663 l-3 662 -47 3 -48 3 0 -605z"/>
<path d="M687 2204 c-12 -12 -8 -1296 3 -1352 13 -58 57 -115 111 -142 36 -19
60 -20 409 -20 l370 0 0 550 0 550 186 0 185 0 -20 -26 c-41 -52 -137 -104
-193 -104 -20 0 -18 -4 17 -40 44 -45 59 -46 141 -10 152 66 223 258 152 411
-32 71 -86 124 -157 158 l-56 26 -335 0 -335 0 -3 -552 -2 -553 -185 0 -185 0
-2 553 -3 552 -45 3 c-25 2 -49 0 -53 -4z m1173 -124 l45 -25 -292 -3 -293 -2
-2 -553 -3 -552 -262 -3 -263 -2 0 30 0 30 235 0 235 0 0 548 c0 302 3 552 7
556 4 4 129 6 278 4 266 -3 271 -3 315 -28z m114 -152 c3 -13 6 -26 6 -30 0
-5 -112 -8 -250 -8 l-250 0 0 -550 0 -550 -314 0 c-310 0 -314 0 -342 23 l-29
22 310 5 310 5 3 553 2 552 274 0 274 0 6 -22z"/>
<path d="M2111 1834 c-2 -97 -70 -212 -162 -273 -32 -22 -64 -41 -71 -44 -9
-3 -1 -17 23 -42 l36 -37 39 20 c55 28 119 98 145 157 27 60 30 171 6 225
l-15 35 -1 -41z"/>
<path d="M2176 1654 c-13 -93 -86 -205 -164 -254 l-23 -15 40 -39 39 -38 44
44 c70 69 93 127 93 228 0 47 -5 93 -11 104 -10 16 -12 12 -18 -30z"/>
<path d="M1 293 c4 -156 7 -182 24 -213 33 -56 82 -75 200 -74 60 0 109 5 122
12 30 16 35 60 31 272 l-3 175 -47 3 -48 3 0 -190 0 -191 -64 0 c-48 0 -70 5
-87 19 -23 19 -24 24 -27 190 l-3 171 -51 0 -50 0 3 -177z"/>
<path d="M456 454 c-3 -9 -6 -112 -6 -230 l0 -214 50 0 50 0 0 147 0 146 96
-147 97 -147 46 3 46 3 3 228 2 228 -47 -3 -47 -3 1 -137 c1 -76 -1 -138 -6
-138 -4 0 -49 63 -99 140 l-91 140 -44 0 c-32 0 -47 -5 -51 -16z"/>
<path d="M920 239 l0 -230 48 3 47 3 3 228 2 227 -50 0 -50 0 0 -231z"/>
<path d="M1102 458 c-9 -9 -12 -74 -12 -230 l0 -218 50 0 50 0 0 190 0 190 44
0 c88 0 131 -41 104 -98 -11 -22 -21 -28 -53 -30 -54 -4 -61 -15 -36 -51 26
-36 63 -41 117 -15 52 25 78 68 78 131 0 61 -22 99 -75 125 -42 22 -247 26
-267 6z"/>
<path d="M1563 458 c-6 -7 -41 -105 -78 -218 -37 -113 -70 -211 -73 -218 -3
-10 8 -12 49 -10 l53 3 15 48 15 47 76 0 76 0 15 -47 15 -48 53 -3 c41 -2 52
0 49 10 -3 7 -36 105 -73 218 -37 113 -72 211 -78 218 -5 6 -31 12 -57 12 -26
0 -52 -6 -57 -12z m81 -165 c10 -38 21 -76 23 -85 5 -16 -2 -18 -47 -18 -45 0
-52 2 -47 18 2 9 13 47 23 85 10 37 21 67 24 67 3 0 14 -30 24 -67z"/>
<path d="M1877 463 c-4 -3 -7 -107 -7 -230 l0 -223 45 0 45 0 2 188 3 187 57
0 c65 0 98 -22 98 -65 0 -36 -29 -60 -73 -60 -20 0 -38 -4 -41 -9 -5 -8 146
-218 168 -233 15 -11 94 -10 100 1 3 5 -23 47 -58 93 l-64 85 30 31 c40 39 49
110 22 167 -27 58 -74 75 -210 75 -61 0 -114 -3 -117 -7z"/>
</g>
</svg>
