<svg width="25" height="24" viewBox="0 0 25 24" fill="none" xmlns="http://www.w3.org/2000/svg">
<path d="M12.5 14C14.1569 14 15.5 12.6569 15.5 11C15.5 9.34315 14.1569 8 12.5 8C10.8431 8 9.5 9.34315 9.5 11C9.5 12.6569 10.8431 14 12.5 14Z" stroke="black" stroke-width="1.5" stroke-linecap="round" stroke-linejoin="round"/>
<path d="M18.157 16.657L13.914 20.9C13.539 21.2746 13.0306 21.485 12.5005 21.485C11.9704 21.485 11.462 21.2746 11.087 20.9L6.843 16.657C5.72422 15.5381 4.96234 14.1127 4.65369 12.5608C4.34504 11.009 4.50349 9.40047 5.10901 7.93868C5.71452 6.4769 6.7399 5.22749 8.05548 4.34846C9.37107 3.46943 10.9178 3.00024 12.5 3.00024C14.0822 3.00024 15.6289 3.46943 16.9445 4.34846C18.2601 5.22749 19.2855 6.4769 19.891 7.93868C20.4965 9.40047 20.655 11.009 20.3463 12.5608C20.0377 14.1127 19.2758 15.5381 18.157 16.657Z" stroke="black" stroke-width="1.5" stroke-linecap="round" stroke-linejoin="round"/>
</svg>
